<?xml version="1.0" encoding="utf-8"?>
<!-- Generator: Adobe Illustrator 27.1.1, SVG Export Plug-In . SVG Version: 6.00 Build 0)  -->
<svg version="1.1" id="Layer_1" xmlns="http://www.w3.org/2000/svg" xmlns:xlink="http://www.w3.org/1999/xlink" x="0px" y="0px"
	 viewBox="0 0 512 512" style="enable-background:new 0 0 512 512;" xml:space="preserve">
<style type="text/css">
	.st0{fill:#FFFFFF;}
	.st1{display:none;}
	.st2{display:inline;}
	.st3{font-family:'HelveticaLTStd-UltraComp';}
	.st4{font-size:115px;}
	.st5{letter-spacing:2;}
	.st6{display:inline;fill:#FF0000;}
	.st7{fill:#FF0000;}
	.st8{display:inline;fill:#FFFFFF;}
	.st9{display:inline;fill:#231F20;}
</style>
<g>
	<rect x="1.5" y="1.5" class="st0" width="509" height="509"/>
	<path d="M509,3v506H3V3H509 M512,0H0v512h512V0L512,0z"/>
</g>
<text transform="matrix(1 0 0 1 45.4152 143.7205)" class="st1"><tspan x="0" y="0" class="st2 st3 st4 st5">BAIZMAN</tspan><tspan x="0" y="106" class="st6 st3 st4 st5">DESIGN</tspan><tspan x="0" y="212" class="st2 st3 st4 st5">STANDARD</tspan><tspan x="0" y="318" class="st6 st3 st4 st5">LIBRARY</tspan></text>
<g>
	<path d="M48.6,61.8h17.3c9.8,0,14.3,6,14.3,14.7v13c-0.1,7.1-4.3,9.3-11.3,10.9v0.2c7.7,1.5,11.6,3.6,11.6,12.8v13
		c0,9.8-4.5,17.3-14.7,17.3H48.6V61.8z M60.8,95.8h2.8c3.1,0,4.4-1.4,4.4-6.1V77.2c0-4.7-1.3-6.1-4.4-6.1h-2.8V95.8z M60.8,133.9
		h2.4c3.5,0,5.1-1.4,5.1-6.4V112c0-5.1-1.6-6.4-5.1-6.4h-2.4V133.9z"/>
	<path d="M96,61.8h18.3l9.3,81.9h-12.3l-2.3-22.2h-8.6l-2.6,22.2h-11L96,61.8z M107.9,110.8l-2.5-34h-0.8l-3,34H107.9z"/>
	<path d="M130.1,143.7V61.8h12.2v81.9H130.1z"/>
	<path d="M176.4,61.8v9L162.1,133h14.4v10.7h-27.1v-8.5l14.1-62.7h-13.9V61.8H176.4z"/>
	<path d="M202.3,143.7l-4.4-39.4c-0.9-8.4-2.1-20.4-2.9-27.4h-0.5c0.1,4.9,0.5,11,0.5,16v50.8h-10.7V61.8h18.1l3.9,33.8
		c0.7,5.1,1.8,15.2,2,25.5h0.6c0.3-8.5,0.5-18.9,1.2-25.4l3.3-33.9h18.1v81.9h-10.7V106c0-9.7,0.1-18.7,0.5-29.1h-0.5
		c-0.7,6.1-2.5,27.1-3,31.5l-4.3,35.3H202.3z"/>
	<path d="M247.8,61.8h18.3l9.3,81.9h-12.3l-2.3-22.2h-8.6l-2.6,22.2h-11L247.8,61.8z M259.7,110.8l-2.5-34h-0.8l-3,34H259.7z"/>
	<path d="M300.2,61.8l3.5,23.6c2.8,15.2,4.7,30.9,5.8,46.3h0.5v-4.4c0.1-7.9-0.3-16-0.3-23.9V61.8h10v81.9h-18.1l-5.8-40.9
		c-2-10.1-2.6-19.3-3.7-29h-0.5c0,3.6,0.2,7.1,0.3,10.6v59.3h-10V61.8H300.2z"/>
	<path class="st7" d="M48.6,167.8h14.7c12.1,0,17.1,4.1,17.1,18.5v48.5c0,7.8-5.1,14.8-14.5,14.8H48.6V167.8z M60.8,239.9h2.9
		c3.1,0,4.6-0.8,4.6-6.1v-50.1c0-5.3-1.5-6.1-4.6-6.1h-2.9V239.9z"/>
	<path class="st7" d="M89.6,249.7v-81.9h27.1v10.7h-15v21h14.4v10.7h-14.4V239h15.2v10.7H89.6z"/>
	<path class="st7" d="M135.7,236.5c0,4.1,1.3,5.1,3.8,5.1c2.4,0,3.7-0.9,3.7-5.1v-8.6c0-11.5-19.7-22.8-19.7-36.1V180
		c0-10.7,8.4-13.8,15.9-13.8c7.6,0,16,3.1,16,13.8v17.3h-12.2v-16.2c0-4.1-1.3-5.1-3.7-5.1c-2.5,0-3.8,0.9-3.8,5.1v10.1
		c0,5.9,19.7,23.6,19.7,31.9v14.5c0,10.7-8.4,13.8-16,13.8c-7.5,0-15.9-3.1-15.9-13.8v-18.9h12.2V236.5z"/>
	<path class="st7" d="M164.3,249.7v-81.9h12.2v81.9H164.3z"/>
	<path class="st7" d="M217.5,208.9v40.8h-6.1l-0.3-5.2h-0.2c-2.2,4.5-6.2,6.8-11,6.8c-5.8,0-14.1-3.1-14.1-13.8V180
		c0-10.7,8.4-13.8,15.9-13.8c7.6,0,16,3.1,16,13.8v17.4h-12.2v-16.3c0-4.1-1.3-5.1-3.7-5.1c-2.5,0-3.8,0.9-3.8,5.1v55.4
		c0,4.1,1.3,5.1,3.8,5.1c2.4,0,3.7-0.9,3.7-5.1v-17.8h-4.8v-9.8H217.5z"/>
	<path class="st7" d="M244.8,167.8l3.5,23.6c2.8,15.2,4.7,30.9,5.8,46.3h0.5v-4.4c0.1-7.9-0.3-16-0.3-23.9v-41.6h10v81.9h-18.1
		l-5.8-40.9c-2-10.1-2.6-19.3-3.7-29h-0.5c0,3.6,0.2,7.1,0.3,10.6v59.3h-10v-81.9H244.8z"/>
	<path d="M60.8,342.5c0,4.1,1.3,5.1,3.8,5.1c2.4,0,3.7-0.9,3.7-5.1v-8.6c0-11.5-19.7-22.8-19.7-36.1V286c0-10.7,8.4-13.8,15.9-13.8
		c7.6,0,16,3.1,16,13.8v17.3H68.3v-16.2c0-4.1-1.3-5.1-3.7-5.1c-2.5,0-3.8,0.9-3.8,5.1v10.1c0,5.9,19.7,23.6,19.7,31.9v14.5
		c0,10.7-8.4,13.8-16,13.8c-7.5,0-15.9-3.1-15.9-13.8v-18.9h12.2V342.5z"/>
	<path d="M120.9,273.8v10.7h-10.6v71.2H98.1v-71.2H87.4v-10.7H120.9z"/>
	<path d="M128.2,273.8h18.3l9.3,81.9h-12.3l-2.3-22.2h-8.6l-2.6,22.2h-11L128.2,273.8z M140.1,322.8l-2.5-34h-0.8l-3,34H140.1z"/>
	<path d="M180.7,273.8l3.5,23.6c2.8,15.2,4.7,30.9,5.8,46.3h0.5v-4.4c0.1-7.9-0.3-16-0.3-23.9v-41.6h10v81.9h-18.1l-5.8-40.9
		c-2-10.1-2.6-19.3-3.7-29H172c0,3.6,0.2,7.1,0.3,10.6v59.3h-10v-81.9H180.7z"/>
	<path d="M209.1,273.8h14.7c12.1,0,17.1,4.1,17.1,18.5v48.5c0,7.8-5.1,14.8-14.5,14.8h-17.4V273.8z M221.2,345.9h2.9
		c3.1,0,4.6-0.8,4.6-6.1v-50.1c0-5.3-1.5-6.1-4.6-6.1h-2.9V345.9z"/>
	<path d="M256.4,273.8h18.3l9.3,81.9h-12.3l-2.3-22.2h-8.6l-2.6,22.2h-11L256.4,273.8z M268.3,322.8l-2.5-34h-0.8l-3,34H268.3z"/>
	<path d="M290.2,355.7v-81.9h16.1c9.8,0,15.8,3.5,15.8,14v11.6c0,6.1-1.7,11.2-12.1,12.3v0.2c5.4,0.7,11.2,2.5,11.6,10
		c0.7,10.9,0,22.4,2,33.7h-12.2c-2.1-9.4-1.5-21.7-1.5-31.3c0-4.9-1.8-6.9-7.5-6.7v38H290.2z M302.4,307.8h2.3
		c4.3,0,5.2-2.3,5.2-5.3v-14.8c0-3.1-1.8-4-4.6-4h-2.9V307.8z"/>
	<path d="M330.8,273.8h14.7c12.1,0,17.1,4.1,17.1,18.5v48.5c0,7.8-5.1,14.8-14.5,14.8h-17.4V273.8z M343,345.9h2.9
		c3.1,0,4.6-0.8,4.6-6.1v-50.1c0-5.3-1.5-6.1-4.6-6.1H343V345.9z"/>
	<path class="st7" d="M49,461.7v-81.9h12.2V451h15.5v10.7H49z"/>
	<path class="st7" d="M83.1,461.7v-81.9h12.2v81.9H83.1z"/>
	<path class="st7" d="M104.4,379.8h17.3c9.8,0,14.3,6,14.3,14.7v13c-0.1,7.1-4.3,9.3-11.3,10.9v0.2c7.7,1.5,11.6,3.6,11.6,12.8v13
		c0,9.8-4.5,17.3-14.7,17.3h-17.1V379.8z M116.6,413.8h2.8c3.1,0,4.4-1.4,4.4-6.1v-12.4c0-4.7-1.3-6.1-4.4-6.1h-2.8V413.8z
		 M116.6,451.9h2.4c3.5,0,5.1-1.4,5.1-6.4V430c0-5.1-1.6-6.4-5.1-6.4h-2.4V451.9z"/>
	<path class="st7" d="M145,461.7v-81.9h16.1c9.8,0,15.8,3.5,15.8,14v11.6c0,6.1-1.7,11.2-12.1,12.3v0.2c5.4,0.7,11.2,2.5,11.6,10
		c0.7,10.9,0,22.4,2,33.7h-12.2c-2.1-9.4-1.5-21.7-1.5-31.3c0-4.9-1.8-6.9-7.5-6.7v38H145z M157.2,413.8h2.3c4.3,0,5.2-2.3,5.2-5.3
		v-14.8c0-3.1-1.8-4-4.6-4h-2.9V413.8z"/>
	<path class="st7" d="M192.4,379.8h18.3l9.3,81.9h-12.3l-2.3-22.2h-8.6l-2.6,22.2h-11L192.4,379.8z M204.2,428.8l-2.5-34h-0.8l-3,34
		H204.2z"/>
	<path class="st7" d="M226.2,461.7v-81.9h16.1c9.8,0,15.8,3.5,15.8,14v11.6c0,6.1-1.7,11.2-12.1,12.3v0.2c5.4,0.7,11.2,2.5,11.6,10
		c0.7,10.9,0,22.4,2,33.7h-12.2c-2.1-9.4-1.5-21.7-1.5-31.3c0-4.9-1.8-6.9-7.5-6.7v38H226.2z M238.4,413.8h2.3
		c4.3,0,5.2-2.3,5.2-5.3v-14.8c0-3.1-1.8-4-4.6-4h-2.9V413.8z"/>
	<path class="st7" d="M274.5,379.8l4,17.8c1.7,7.9,1.6,9.1,2.6,17.7h0.2c0.3-6.4,0.8-11.8,2.1-17.1l4.4-18.4h11.4l-12.5,50.7v31.2
		h-12.2v-30.6L262,379.8H274.5z"/>
</g>
<g class="st1">
	<path class="st8" d="M48.6,61.8h17.3c9.8,0,14.3,6,14.3,14.7v13c-0.1,7.1-4.3,9.3-11.3,10.9v0.2c7.7,1.5,11.6,3.6,11.6,12.8v13
		c0,9.8-4.5,17.3-14.7,17.3H48.6V61.8z M60.8,95.8h2.8c3.1,0,4.4-1.4,4.4-6.1V77.2c0-4.7-1.3-6.1-4.4-6.1h-2.8V95.8z M60.8,133.9
		h2.4c3.5,0,5.1-1.4,5.1-6.4V112c0-5.1-1.6-6.4-5.1-6.4h-2.4V133.9z"/>
	<path class="st8" d="M96,61.8h18.3l9.3,81.9h-12.3l-2.3-22.2h-8.6l-2.6,22.2h-11L96,61.8z M107.9,110.8l-2.5-34h-0.8l-3,34H107.9z"
		/>
	<path class="st8" d="M130.1,143.7V61.8h12.2v81.9H130.1z"/>
	<path class="st8" d="M176.4,61.8v9L162.1,133h14.4v10.7h-27.1v-8.5l14.1-62.7h-13.9V61.8H176.4z"/>
	<path class="st8" d="M202.3,143.7l-4.4-39.4c-0.9-8.4-2.1-20.4-2.9-27.4h-0.5c0.1,4.9,0.5,11,0.5,16v50.8h-10.7V61.8h18.1l3.9,33.8
		c0.7,5.1,1.8,15.2,2,25.5h0.6c0.3-8.5,0.5-18.9,1.2-25.4l3.3-33.9h18.1v81.9h-10.7V106c0-9.7,0.1-18.7,0.5-29.1h-0.5
		c-0.7,6.1-2.5,27.1-3,31.5l-4.3,35.3H202.3z"/>
	<path class="st8" d="M247.8,61.8h18.3l9.3,81.9h-12.3l-2.3-22.2h-8.6l-2.6,22.2h-11L247.8,61.8z M259.7,110.8l-2.5-34h-0.8l-3,34
		H259.7z"/>
	<path class="st8" d="M300.2,61.8l3.5,23.6c2.8,15.2,4.7,30.9,5.8,46.3h0.5v-4.4c0.1-7.9-0.3-16-0.3-23.9V61.8h10v81.9h-18.1
		l-5.8-40.9c-2-10.1-2.6-19.3-3.7-29h-0.5c0,3.6,0.2,7.1,0.3,10.6v59.3h-10V61.8H300.2z"/>
	<path class="st8" d="M48.6,167.8h14.7c12.1,0,17.1,4.1,17.1,18.5v48.5c0,7.8-5.1,14.8-14.5,14.8H48.6V167.8z M60.8,239.9h2.9
		c3.1,0,4.6-0.8,4.6-6.1v-50.1c0-5.3-1.5-6.1-4.6-6.1h-2.9V239.9z"/>
	<path class="st8" d="M89.6,249.7v-81.9h27.1v10.7h-15v21h14.4v10.7h-14.4V239h15.2v10.7H89.6z"/>
	<path class="st8" d="M135.7,236.5c0,4.1,1.3,5.1,3.8,5.1c2.4,0,3.7-0.9,3.7-5.1v-8.6c0-11.5-19.7-22.8-19.7-36.1V180
		c0-10.7,8.4-13.8,15.9-13.8c7.6,0,16,3.1,16,13.8v17.3h-12.2v-16.2c0-4.1-1.3-5.1-3.7-5.1c-2.5,0-3.8,0.9-3.8,5.1v10.1
		c0,5.9,19.7,23.6,19.7,31.9v14.5c0,10.7-8.4,13.8-16,13.8c-7.5,0-15.9-3.1-15.9-13.8v-18.9h12.2V236.5z"/>
	<path class="st8" d="M164.3,249.7v-81.9h12.2v81.9H164.3z"/>
	<path class="st8" d="M217.5,208.9v40.8h-6.1l-0.3-5.2h-0.2c-2.2,4.5-6.2,6.8-11,6.8c-5.8,0-14.1-3.1-14.1-13.8V180
		c0-10.7,8.4-13.8,15.9-13.8c7.6,0,16,3.1,16,13.8v17.4h-12.2v-16.3c0-4.1-1.3-5.1-3.7-5.1c-2.5,0-3.8,0.9-3.8,5.1v55.4
		c0,4.1,1.3,5.1,3.8,5.1c2.4,0,3.7-0.9,3.7-5.1v-17.8h-4.8v-9.8H217.5z"/>
	<path class="st8" d="M244.8,167.8l3.5,23.6c2.8,15.2,4.7,30.9,5.8,46.3h0.5v-4.4c0.1-7.9-0.3-16-0.3-23.9v-41.6h10v81.9h-18.1
		l-5.8-40.9c-2-10.1-2.6-19.3-3.7-29h-0.5c0,3.6,0.2,7.1,0.3,10.6v59.3h-10v-81.9H244.8z"/>
	<path class="st9" d="M60.8,342.5c0,4.1,1.3,5.1,3.8,5.1c2.4,0,3.7-0.9,3.7-5.1v-8.6c0-11.5-19.7-22.8-19.7-36.1V286
		c0-10.7,8.4-13.8,15.9-13.8c7.6,0,16,3.1,16,13.8v17.3H68.3v-16.2c0-4.1-1.3-5.1-3.7-5.1c-2.5,0-3.8,0.9-3.8,5.1v10.1
		c0,5.9,19.7,23.6,19.7,31.9v14.5c0,10.7-8.4,13.8-16,13.8c-7.5,0-15.9-3.1-15.9-13.8v-18.9h12.2V342.5z"/>
	<path class="st9" d="M120.9,273.8v10.7h-10.6v71.2H98.1v-71.2H87.4v-10.7H120.9z"/>
	<path class="st9" d="M128.2,273.8h18.3l9.3,81.9h-12.3l-2.3-22.2h-8.6l-2.6,22.2h-11L128.2,273.8z M140.1,322.8l-2.5-34h-0.8l-3,34
		H140.1z"/>
	<path class="st9" d="M180.7,273.8l3.5,23.6c2.8,15.2,4.7,30.9,5.8,46.3h0.5v-4.4c0.1-7.9-0.3-16-0.3-23.9v-41.6h10v81.9h-18.1
		l-5.8-40.9c-2-10.1-2.6-19.3-3.7-29H172c0,3.6,0.2,7.1,0.3,10.6v59.3h-10v-81.9H180.7z"/>
	<path class="st9" d="M209.1,273.8h14.7c12.1,0,17.1,4.1,17.1,18.5v48.5c0,7.8-5.1,14.8-14.5,14.8h-17.4V273.8z M221.2,345.9h2.9
		c3.1,0,4.6-0.8,4.6-6.1v-50.1c0-5.3-1.5-6.1-4.6-6.1h-2.9V345.9z"/>
	<path class="st9" d="M256.4,273.8h18.3l9.3,81.9h-12.3l-2.3-22.2h-8.6l-2.6,22.2h-11L256.4,273.8z M268.3,322.8l-2.5-34h-0.8l-3,34
		H268.3z"/>
	<path class="st9" d="M290.2,355.7v-81.9h16.1c9.8,0,15.8,3.5,15.8,14v11.6c0,6.1-1.7,11.2-12.1,12.3v0.2c5.4,0.7,11.2,2.5,11.6,10
		c0.7,10.9,0,22.4,2,33.7h-12.2c-2.1-9.4-1.5-21.7-1.5-31.3c0-4.9-1.8-6.9-7.5-6.7v38H290.2z M302.4,307.8h2.3
		c4.3,0,5.2-2.3,5.2-5.3v-14.8c0-3.1-1.8-4-4.6-4h-2.9V307.8z"/>
	<path class="st9" d="M330.8,273.8h14.7c12.1,0,17.1,4.1,17.1,18.5v48.5c0,7.8-5.1,14.8-14.5,14.8h-17.4V273.8z M343,345.9h2.9
		c3.1,0,4.6-0.8,4.6-6.1v-50.1c0-5.3-1.5-6.1-4.6-6.1H343V345.9z"/>
	<path class="st2" d="M49,461.7v-81.9h12.2V451h15.5v10.7H49z"/>
	<path class="st2" d="M83.1,461.7v-81.9h12.2v81.9H83.1z"/>
	<path class="st2" d="M104.4,379.8h17.3c9.8,0,14.3,6,14.3,14.7v13c-0.1,7.1-4.3,9.3-11.3,10.9v0.2c7.7,1.5,11.6,3.6,11.6,12.8v13
		c0,9.8-4.5,17.3-14.7,17.3h-17.1V379.8z M116.6,413.8h2.8c3.1,0,4.4-1.4,4.4-6.1v-12.4c0-4.7-1.3-6.1-4.4-6.1h-2.8V413.8z
		 M116.6,451.9h2.4c3.5,0,5.1-1.4,5.1-6.4V430c0-5.1-1.6-6.4-5.1-6.4h-2.4V451.9z"/>
	<path class="st2" d="M145,461.7v-81.9h16.1c9.8,0,15.8,3.5,15.8,14v11.6c0,6.1-1.7,11.2-12.1,12.3v0.2c5.4,0.7,11.2,2.5,11.6,10
		c0.7,10.9,0,22.4,2,33.7h-12.2c-2.1-9.4-1.5-21.7-1.5-31.3c0-4.9-1.8-6.9-7.5-6.7v38H145z M157.2,413.8h2.3c4.3,0,5.2-2.3,5.2-5.3
		v-14.8c0-3.1-1.8-4-4.6-4h-2.9V413.8z"/>
	<path class="st2" d="M192.4,379.8h18.3l9.3,81.9h-12.3l-2.3-22.2h-8.6l-2.6,22.2h-11L192.4,379.8z M204.2,428.8l-2.5-34h-0.8l-3,34
		H204.2z"/>
	<path class="st2" d="M226.2,461.7v-81.9h16.1c9.8,0,15.8,3.5,15.8,14v11.6c0,6.1-1.7,11.2-12.1,12.3v0.2c5.4,0.7,11.2,2.5,11.6,10
		c0.7,10.9,0,22.4,2,33.7h-12.2c-2.1-9.4-1.5-21.7-1.5-31.3c0-4.9-1.8-6.9-7.5-6.7v38H226.2z M238.4,413.8h2.3
		c4.3,0,5.2-2.3,5.2-5.3v-14.8c0-3.1-1.8-4-4.6-4h-2.9V413.8z"/>
	<path class="st2" d="M274.5,379.8l4,17.8c1.7,7.9,1.6,9.1,2.6,17.7h0.2c0.3-6.4,0.8-11.8,2.1-17.1l4.4-18.4h11.4l-12.5,50.7v31.2
		h-12.2v-30.6L262,379.8H274.5z"/>
</g>
<text transform="matrix(1 0 0 1 -1039.9121 -506.8779)"><tspan x="0" y="0" class="st4 st5" style="font-family:'MyriadPro-Regular';">note: illustrator doesn’t export type with tracking.</tspan><tspan x="0" y="106" class="st4 st5" style="font-family:'MyriadPro-Regular';">so, we have to create a layer with outlined text.</tspan><tspan x="0" y="212" class="st4 st5" style="font-family:'MyriadPro-Regular';">https://graphicdesign.stackexchange.com/questions/28176/illustrator-save-as-svg-losing-character-tracking-information</tspan></text>
</svg>
